<mxfile host="Electron" modified="2023-08-24T11:50:35.582Z" agent="Mozilla/5.0 (X11; Linux x86_64) AppleWebKit/537.36 (KHTML, like Gecko) draw.io/21.6.8 Chrome/114.0.5735.289 Electron/25.5.0 Safari/537.36" etag="omlcVQZ0aKqdDoXqg_QM" version="21.6.8" type="device">
  <diagram name="Page-1" id="mVvWSEfkGbPbsZ0lc9dp">
    <mxGraphModel dx="1533" dy="531" grid="1" gridSize="10" guides="1" tooltips="1" connect="1" arrows="1" fold="1" page="1" pageScale="1" pageWidth="727" pageHeight="1069" math="0" shadow="0">
      <root>
        <mxCell id="0" />
        <mxCell id="1" parent="0" />
        <mxCell id="X9YclXZdixI7s-z_UrZV-1" value="Docker Compose&lt;br&gt;(YML File)" style="ellipse;whiteSpace=wrap;html=1;strokeWidth=2;fillColor=#e6d0de;gradientColor=#d5739d;strokeColor=#996185;" vertex="1" parent="1">
          <mxGeometry x="20" y="130" width="120" height="80" as="geometry" />
        </mxCell>
        <mxCell id="X9YclXZdixI7s-z_UrZV-5" value="Docker File" style="rounded=0;whiteSpace=wrap;html=1;dashed=1;dashPattern=8 8;strokeWidth=2;fillColor=#dae8fc;strokeColor=#6c8ebf;gradientColor=#7ea6e0;" vertex="1" parent="1">
          <mxGeometry x="210" y="70" width="120" height="60" as="geometry" />
        </mxCell>
        <mxCell id="X9YclXZdixI7s-z_UrZV-6" value="Docker File" style="rounded=0;whiteSpace=wrap;html=1;dashed=1;dashPattern=8 8;strokeWidth=2;fillColor=#dae8fc;strokeColor=#6c8ebf;gradientColor=#7ea6e0;" vertex="1" parent="1">
          <mxGeometry x="210" y="210" width="120" height="60" as="geometry" />
        </mxCell>
        <mxCell id="X9YclXZdixI7s-z_UrZV-13" value="Container 1" style="swimlane;whiteSpace=wrap;html=1;fillColor=#fff2cc;gradientColor=#ffd966;strokeColor=#d6b656;" vertex="1" parent="1">
          <mxGeometry x="400" y="50" width="130" height="70" as="geometry" />
        </mxCell>
        <mxCell id="X9YclXZdixI7s-z_UrZV-33" value="Courses.html" style="text;html=1;strokeColor=none;fillColor=none;align=center;verticalAlign=middle;whiteSpace=wrap;rounded=0;" vertex="1" parent="X9YclXZdixI7s-z_UrZV-13">
          <mxGeometry x="35" y="30" width="60" height="30" as="geometry" />
        </mxCell>
        <mxCell id="X9YclXZdixI7s-z_UrZV-14" value="&amp;nbsp;Container 2" style="swimlane;whiteSpace=wrap;html=1;startSize=23;fillColor=#fff2cc;gradientColor=#ffd966;strokeColor=#d6b656;" vertex="1" parent="1">
          <mxGeometry x="400" y="200" width="140" height="70" as="geometry" />
        </mxCell>
        <mxCell id="X9YclXZdixI7s-z_UrZV-34" value="Staff.html" style="text;html=1;strokeColor=none;fillColor=none;align=center;verticalAlign=middle;whiteSpace=wrap;rounded=0;" vertex="1" parent="X9YclXZdixI7s-z_UrZV-14">
          <mxGeometry x="40" y="30" width="60" height="30" as="geometry" />
        </mxCell>
        <mxCell id="X9YclXZdixI7s-z_UrZV-18" value="" style="strokeWidth=2;html=1;shape=mxgraph.flowchart.annotation_2;align=left;labelPosition=right;pointerEvents=1;" vertex="1" parent="1">
          <mxGeometry x="140" y="120" width="70" height="120" as="geometry" />
        </mxCell>
        <mxCell id="X9YclXZdixI7s-z_UrZV-27" value="" style="html=1;shadow=0;dashed=0;align=center;verticalAlign=middle;shape=mxgraph.arrows2.arrow;dy=0;dx=10;notch=10;" vertex="1" parent="1">
          <mxGeometry x="-390" y="330" width="100" height="30" as="geometry" />
        </mxCell>
        <mxCell id="X9YclXZdixI7s-z_UrZV-28" value="" style="endArrow=none;html=1;rounded=0;" edge="1" parent="1">
          <mxGeometry width="50" height="50" relative="1" as="geometry">
            <mxPoint x="400" y="90" as="sourcePoint" />
            <mxPoint x="330" y="90" as="targetPoint" />
            <Array as="points" />
          </mxGeometry>
        </mxCell>
        <mxCell id="X9YclXZdixI7s-z_UrZV-29" value="" style="endArrow=none;html=1;rounded=0;entryX=1;entryY=0.5;entryDx=0;entryDy=0;" edge="1" parent="1" target="X9YclXZdixI7s-z_UrZV-6">
          <mxGeometry width="50" height="50" relative="1" as="geometry">
            <mxPoint x="400" y="240" as="sourcePoint" />
            <mxPoint x="340" y="100" as="targetPoint" />
            <Array as="points">
              <mxPoint x="370" y="240" />
            </Array>
          </mxGeometry>
        </mxCell>
        <mxCell id="X9YclXZdixI7s-z_UrZV-30" value="" style="shape=datastore;whiteSpace=wrap;html=1;fillColor=#fff2cc;strokeColor=#46e9ec;strokeWidth=3;gradientColor=#ffd966;" vertex="1" parent="1">
          <mxGeometry x="620" y="120" width="60" height="60" as="geometry" />
        </mxCell>
        <mxCell id="X9YclXZdixI7s-z_UrZV-31" value="" style="endArrow=classic;html=1;rounded=0;" edge="1" parent="1" target="X9YclXZdixI7s-z_UrZV-30">
          <mxGeometry width="50" height="50" relative="1" as="geometry">
            <mxPoint x="530" y="80" as="sourcePoint" />
            <mxPoint x="720" y="290" as="targetPoint" />
            <Array as="points">
              <mxPoint x="580" y="80" />
            </Array>
          </mxGeometry>
        </mxCell>
        <mxCell id="X9YclXZdixI7s-z_UrZV-32" value="" style="endArrow=classic;html=1;rounded=0;exitX=1;exitY=0.75;exitDx=0;exitDy=0;" edge="1" parent="1">
          <mxGeometry width="50" height="50" relative="1" as="geometry">
            <mxPoint x="540" y="240" as="sourcePoint" />
            <mxPoint x="620" y="180" as="targetPoint" />
            <Array as="points">
              <mxPoint x="600" y="240.5" />
            </Array>
          </mxGeometry>
        </mxCell>
        <mxCell id="X9YclXZdixI7s-z_UrZV-35" value="Single Service" style="text;html=1;align=center;verticalAlign=middle;whiteSpace=wrap;rounded=0;strokeWidth=2;fillColor=#ffe6cc;strokeColor=#d79b00;" vertex="1" parent="1">
          <mxGeometry x="640" y="200" width="60" height="30" as="geometry" />
        </mxCell>
      </root>
    </mxGraphModel>
  </diagram>
</mxfile>
